<?xml version="1.0" encoding="utf-8"?>
<!-- Generator: Adobe Illustrator 18.1.0, SVG Export Plug-In . SVG Version: 6.00 Build 0)  -->
<svg version="1.2" baseProfile="tiny" id="Layer_1" xmlns="http://www.w3.org/2000/svg" xmlns:xlink="http://www.w3.org/1999/xlink"
	 x="0px" y="0px" viewBox="0 0 120 30" xml:space="preserve">
<g>
	<g>
		<path fill="#FFFFFF" d="M17.2,4.5L17.2,4.5c-1.6,0-2.9,1.3-2.9,2.9l0,0v9.9c0,2.1-0.2,2.9-0.7,3.5c-1.1,1.8-3.4,1.8-4.1,1.8
			c-4.3,0-4.5-2.8-4.5-5.1V7.4l0,0c0-1.6-1.2-2.8-2.8-2.9l0,0h0c0,0,0,0,0,0v0H0.8v12.3c0,1.9,0.1,3.5,1,5.1
			c1.9,3.1,5.7,3.6,7.7,3.6c4.1,0,9-2,9-8.1V4.5H17.2z"/>
		<path fill="#FFFFFF" d="M39.4,4.5h-1l0,0c-1.6,0.1-2.9,1.4-3,3l0,0v0.1V21l-7-14.8l0,0c-0.5-1-1.5-1.7-2.7-1.7l0,0h-1.5l0,0
			c-3.3,0-3,3-3,3v17.9h1.2l0,0c1.7,0,3.1-1.4,3.1-3.1l0,0V8.1l7.2,15.4c0.4,1.1,1.5,1.9,2.8,1.9l0,0h1.2l-0.2,0
			c1.7,0,3.1-1.4,3.1-3.1L39.4,4.5z"/>
		<path fill="#FFFFFF" d="M111.8,17.7l-3.9-1.1c-2.5-0.8-4.2-3.2-4.2-5.8c0-3.4,2.7-6.2,6.2-6.2h7.7v2.7h-5.4c-1,0-1.9,0.8-1.9,1.9
			c0,0.7,0.5,1.5,1.3,1.7l3.8,1.3c2.6,0.8,4,3.4,4,6.4c0,3.8-3.1,6.9-6.9,6.9h-8.1v-3.1h7c1,0,2.2-1,2.2-2.4
			C113.4,18.9,112.8,18,111.8,17.7"/>
		<path fill="#FFFFFF" d="M93,25.5c-4.6,0-8.1-3.2-8.1-7.2V4.5H91v14.2c0,1.8,1.6,3.2,3.6,3.2c1.9,0,3.6-1.4,3.6-3.2V4.5h2.9v13.7
			C101,22.2,97.4,25.5,93,25.5"/>
		<path fill="#FFFFFF" d="M74.7,17.7l-3.9-1.1c-2.4-0.8-4.1-3.2-4.1-5.8c0-3.4,2.7-6.2,6.2-6.2h7.7v2.7h-5.4c-1,0-1.9,0.8-1.9,1.9
			c0,0.7,0.5,1.5,1.3,1.7l3.8,1.3c2.5,0.8,3.9,3.4,3.9,6.4c0,3.8-3,6.9-6.8,6.9h-8.1v-3.1h7c1,0,2.2-1,2.2-2.4
			C76.5,18.9,75.8,18,74.7,17.7"/>
		<path fill="#FFFFFF" d="M55.7,6.7c-0.4-1.2-1.5-2.1-2.9-2.2l0,0h-1.1l0,0c-1.2,0-2.4,0.7-2.7,1.8l-6.9,19.1h4.3l1.6-4.5h8.3
			l1.5,4.5h4.5L55.7,6.7z M49.1,17.6l3.1-8.9l2.9,8.9H49.1z"/>
		<path fill="#FFFFFF" d="M66.5,18.6L65.4,17c0,0-0.1-0.1-0.1-0.1l-0.1-0.1l0,0c-0.4-0.5-1.1-0.8-1.8-0.9l0,0h-2.3l1.3,1.8l0,0
			c0.4,0.5,1.1,0.9,1.8,0.9l0,0H66.5z"/>
	</g>
</g>
</svg>
